<svg width="32" height="40" viewBox="0 0 32 40" fill="none" xmlns="http://www.w3.org/2000/svg">
<path d="M16.2269 6.73359C18.0863 6.73359 19.5937 5.22623 19.5937 3.3668C19.5937 1.50737 18.0863 0 16.2269 0C14.3675 0 12.8601 1.50737 12.8601 3.3668C12.8601 5.22623 14.3675 6.73359 16.2269 6.73359Z" fill="white"/>
<path d="M29.6941 8.03031C26.0033 8.03031 22.3096 8.03031 18.6195 8.03031C17.1996 7.10544 15.189 7.10254 13.7835 8.03031C9.95793 8.03031 6.13087 8.03031 2.30526 8.03031C0.135144 8.03031 0.135144 11.3949 2.30526 11.3949C5.5829 11.3949 8.86055 11.3949 12.1382 11.3949C12.1382 14.6095 12.1382 17.8241 12.1382 21.0394C12.1382 21.1206 12.1462 21.1981 12.1498 21.2786C12.1483 21.317 12.1389 21.3496 12.1389 21.3888C12.1389 26.9742 12.1288 32.5597 11.8983 38.1416C11.7961 40.6248 15.6442 40.6147 15.7464 38.1416C15.9276 33.7666 15.9718 29.3894 15.9826 25.0114C16.1653 25.023 16.348 25.0245 16.5299 25.0129C16.5415 29.3901 16.5857 33.7673 16.7662 38.1416C16.8684 40.6147 20.7157 40.6248 20.6143 38.1416C20.3838 32.5597 20.3736 26.9742 20.3736 21.3888C20.3736 21.2177 20.3526 21.059 20.3171 20.9111C20.3171 17.7393 20.3171 14.5675 20.3171 11.3949C23.4432 11.3949 26.5716 11.3949 29.6955 11.3949C31.8642 11.3949 31.8642 8.03031 29.6941 8.03031Z" fill="white"/>
</svg>
