<svg width="40" height="40" viewBox="0 0 40 40" fill="none" xmlns="http://www.w3.org/2000/svg">
<g clip-path="url(#clip0_2_323)">
<path d="M35.3371 13.8941C31.0816 16.1553 26.8462 18.4903 22.7084 20.9732C21.2371 19.514 20.0176 18.3526 19.7034 16.9717C19.7206 16.8892 19.6488 16.0369 19.6531 15.9164C19.6696 15.4831 19.6912 15.0498 19.7371 14.618C19.8698 13.402 20.0893 12.194 20.2873 10.9859C20.6087 9.01672 19.7708 7.05757 17.6983 6.50232C16.9616 6.30505 16.1229 6.37965 15.369 6.67019C15.0935 6.51954 14.7772 6.4148 14.4163 6.37463C11.3696 6.03675 8.37891 5.366 5.51013 4.28134C2.64566 3.19882 1.42039 7.78068 4.25043 8.851C7.04818 9.90913 9.94421 10.5261 12.8919 10.9249C12.8819 10.9809 12.8725 11.0368 12.8618 11.0928C9.4191 11.7535 6.04314 12.6868 2.71955 13.8317C-0.152093 14.8203 1.08179 19.4 3.97926 18.4014C6.71245 17.4595 9.47936 16.661 12.29 16.0391C12.2872 17.0735 12.3919 18.0929 12.6695 19.0728C13.3295 21.3957 14.7721 23.2666 16.3927 24.9869C15.4041 25.6583 14.4099 26.3176 13.3654 26.8865C11.5102 27.8973 9.44564 29.2423 8.73185 31.3543C7.40687 35.2754 11.4966 36.8293 13.5734 39.2231C15.5785 41.5359 18.9164 38.1693 16.9243 35.8716C15.9278 34.7231 14.5734 34.0164 13.5174 32.9425C13.0095 32.4239 13.0763 32.8923 13.6315 32.388C14.4378 31.6541 15.3733 31.2237 16.308 30.6785C19.2428 28.9683 21.9968 26.9288 24.9237 25.1892C29.1339 22.6898 33.403 20.2852 37.7274 17.9853C40.4275 16.5506 38.0344 12.4601 35.3371 13.8941Z" fill="white"/>
<path d="M22.4609 7.43629C24.5144 7.43629 26.1791 5.77162 26.1791 3.71814C26.1791 1.66467 24.5144 0 22.4609 0C20.4075 0 18.7428 1.66467 18.7428 3.71814C18.7428 5.77162 20.4075 7.43629 22.4609 7.43629Z" fill="white"/>
</g>
<defs>
<clipPath id="clip0_2_323">
<rect width="40" height="40" fill="white"/>
</clipPath>
</defs>
</svg>
