<svg width="20" height="22" viewBox="0 0 20 22" fill="none" xmlns="http://www.w3.org/2000/svg">
<path d="M17.9945 7.91828C15.8117 9.0781 13.6393 10.2758 11.5169 11.5493C10.7622 10.8009 10.1367 10.2052 9.97548 9.49684C9.98431 9.45453 9.94752 9.01739 9.94973 8.95557C9.95819 8.73332 9.96923 8.51107 9.99278 8.28956C10.0609 7.66586 10.1734 7.04621 10.275 6.42656C10.4399 5.4165 10.0101 4.4116 8.94703 4.12679C8.56913 4.0256 8.13898 4.06387 7.75225 4.2129C7.61095 4.13562 7.44868 4.0819 7.2636 4.0613C5.70086 3.88799 4.16682 3.54394 2.69534 2.98758C1.22606 2.43232 0.597582 4.7825 2.0492 5.3315C3.48425 5.87425 4.96972 6.1907 6.48168 6.39528C6.47652 6.42399 6.47174 6.45269 6.46622 6.48139C4.70037 6.82028 2.96873 7.299 1.26396 7.88627C-0.208993 8.39332 0.423903 10.7424 1.91011 10.2302C3.31204 9.74706 4.73128 9.33752 6.17296 9.01849C6.17148 9.54909 6.22521 10.072 6.36761 10.5746C6.70613 11.7661 7.44611 12.7257 8.27733 13.6081C7.77028 13.9525 7.26029 14.2907 6.72453 14.5825C5.77298 15.1009 4.71398 15.7908 4.34786 16.8741C3.66823 18.8854 5.76599 19.6824 6.83124 20.9103C7.8597 22.0966 9.57183 20.3698 8.54999 19.1912C8.03889 18.6021 7.34418 18.2396 6.80254 17.6888C6.54202 17.4228 6.57624 17.663 6.86105 17.4044C7.27464 17.0279 7.75446 16.8072 8.23391 16.5275C9.73925 15.6503 11.1519 14.6042 12.6531 13.7119C14.8127 12.4299 17.0025 11.1965 19.2205 10.0168C20.6056 9.28085 19.378 7.18272 17.9945 7.91828Z" fill="white"/>
<path d="M11.39 4.60678C12.4433 4.60678 13.2972 3.75292 13.2972 2.69963C13.2972 1.64634 12.4433 0.79248 11.39 0.79248C10.3367 0.79248 9.48285 1.64634 9.48285 2.69963C9.48285 3.75292 10.3367 4.60678 11.39 4.60678Z" fill="white"/>
</svg>
