<svg width="21" height="22" viewBox="0 0 21 22" fill="none" xmlns="http://www.w3.org/2000/svg">
<g clip-path="url(#clip0_2_284)">
<path d="M19.1028 9.2241C20.0401 9.2241 20.7999 8.46427 20.7999 7.52697C20.7999 6.58967 20.0401 5.82983 19.1028 5.82983C18.1655 5.82983 17.4056 6.58967 17.4056 7.52697C17.4056 8.46427 18.1655 9.2241 19.1028 9.2241Z" fill="white"/>
<path d="M4.17774 14.3563C5.91957 13.5046 7.6614 12.6537 9.40364 11.802C9.97214 12.6487 10.9905 12.7385 11.8414 12.3011C12.8773 11.769 13.9144 11.236 14.9495 10.7038C14.9929 11.6771 15.0347 12.6512 15.0769 13.6244C15.1308 14.8458 17.0242 14.7635 16.9704 13.5421C16.9131 12.2281 16.8567 10.914 16.7991 9.60027C17.2381 9.02384 17.2502 8.12076 16.8693 7.53096C16.3041 6.65838 15.2728 6.5623 14.4111 7.00424C12.9107 7.77532 11.4103 8.54598 9.91074 9.31665C9.73989 9.40437 9.59829 9.5255 9.48301 9.6671C7.37234 10.6988 5.2621 11.7306 3.15102 12.7627C2.05496 13.2978 3.09129 14.8867 4.17774 14.3563Z" fill="white"/>
<path d="M20.5343 14.6233H0.282715V15.7206H20.5343V14.6233Z" fill="white"/>
</g>
<defs>
<clipPath id="clip0_2_284">
<rect width="20.5172" height="20.5172" fill="white" transform="translate(0.282776 0.517578)"/>
</clipPath>
</defs>
</svg>
