<svg width="22" height="22" viewBox="0 0 22 22" fill="none" xmlns="http://www.w3.org/2000/svg">
<g clip-path="url(#clip0_2_275)">
<path d="M13.3562 4.26851C14.287 4.26851 15.0416 3.51393 15.0416 2.58311C15.0416 1.65229 14.287 0.897705 13.3562 0.897705C12.4254 0.897705 11.6708 1.65229 11.6708 2.58311C11.6708 3.51393 12.4254 4.26851 13.3562 4.26851Z" fill="white"/>
<path d="M8.12693 5.88477C7.75167 6.05151 7.39125 6.22412 7.05086 6.39501C6.01966 6.91285 6.92588 8.45602 7.95432 7.93991C8.01473 7.90987 8.07618 7.88225 8.1366 7.85291C8.10622 7.20181 8.09379 6.54381 8.12693 5.88477Z" fill="white"/>
<path d="M15.6878 5.8836C15.7423 5.57428 15.6218 5.25736 15.2307 5.08958C13.7445 4.45125 12.0439 4.58899 10.4248 5.04159C10.4251 5.10718 10.422 5.17312 10.4117 5.23975C10.3274 5.78245 10.3098 6.25023 10.3205 6.80916L13.3565 6.7011C13.3565 6.7011 13.7818 6.81295 13.4649 6.96416C13.0185 6.98384 10.0726 7.12573 10.0726 7.12573C10.0364 6.37659 10.034 5.62606 10.1479 4.89107C10.3226 3.76252 8.59887 3.27782 8.42246 4.41534C8.19392 5.88809 8.30439 7.3484 8.3907 8.82805C8.42798 9.47673 9.13086 9.98008 9.73674 9.60067C10.1735 9.3269 10.5943 9.01965 10.9954 8.68858L10.9941 9.26683L10.9816 15.5034V20.4505C10.9816 20.9832 11.371 21.4154 11.9189 21.4154C12.4661 21.4154 12.9108 20.9832 12.9108 20.4505V13.3795H13.7863C13.7863 15.0363 13.7863 18.8176 13.7863 20.4747C13.7863 21.6284 15.5759 21.6284 15.5759 20.4747C15.5759 18.8176 15.5759 17.1608 15.5759 15.5048C15.9408 8.03333 15.9422 8.05577 15.6878 5.8836Z" fill="white"/>
</g>
<defs>
<clipPath id="clip0_2_275">
<rect width="20.5172" height="20.5172" fill="white" transform="translate(0.972412 0.896973)"/>
</clipPath>
</defs>
</svg>
